<svg width="64" height="64" viewBox="0 0 64 64" fill="none" xmlns="http://www.w3.org/2000/svg">
<g clip-path="url(#clip0_23_2)">
<path d="M638.902 321.827C636.662 323.495 634.448 322.678 632.26 319.375L653.011 201.716C653.095 201.212 653.056 200.687 652.898 200.213C652.74 199.739 652.471 199.339 652.128 199.067L556.474 125.058C554.452 123.489 554.51 122.05 556.647 120.742L754.788 0.188918C755.013 0.0530775 755.26 -0.0112162 755.507 0.00160106C755.755 0.0144183 755.995 0.103958 756.208 0.262483C757.053 0.851025 757.226 1.95454 756.707 2.98449C725.776 66.3836 694.481 129.513 662.82 192.373C662.705 192.618 662.622 192.871 662.571 193.133L638.902 321.827Z" fill="#FAB397"/>
<path d="M414.134 306.667C410.796 305.42 408.381 303.337 406.888 300.417C407.647 273.908 407.274 252.977 405.769 237.623C398.961 167.825 392.075 98.018 385.11 28.2032C384.625 23.3805 385.745 22.7079 388.468 26.1855L513.443 186.221C513.666 186.509 513.83 186.86 513.92 187.245C514.011 187.63 514.024 188.036 513.96 188.429C513.897 188.822 513.757 189.19 513.554 189.5C513.351 189.81 513.09 190.053 512.795 190.208L416.334 240.674C415.983 240.858 415.681 241.164 415.465 241.557C415.25 241.95 415.128 242.412 415.116 242.889L414.134 306.667Z" fill="#FADC9E"/>
<path d="M578 310.626C576.341 311.908 575.62 314.171 575.839 317.415C575.857 317.74 575.826 318.064 575.746 318.369C575.667 318.674 575.541 318.954 575.376 319.192C574.771 320.1 574.012 320.814 573.099 321.333L508.096 76.1814C508.013 75.8599 507.984 75.5205 508.009 75.1845C508.034 74.8485 508.113 74.523 508.241 74.2284C508.37 73.9338 508.545 73.6764 508.756 73.4723C508.966 73.2681 509.208 73.1217 509.466 73.0421L512.553 72.0688C513.026 71.9253 513.524 72.0081 513.949 72.3008C514.374 72.5935 514.695 73.0749 514.849 73.6505L578 310.626Z" fill="#FAB397"/>
<path d="M407.332 299.887C408.798 302.797 411.171 304.874 414.45 306.116L415.415 309.083C415.53 309.426 415.704 309.729 415.935 309.991C501.987 404.451 556.596 463.845 626.85 546.608C628.2 548.202 629.589 551.488 632 552.42L631.923 556L623.243 555.387L622.915 549.796C608.872 533.783 591.125 521.619 574.478 510.241C509.87 466.052 445.134 422.164 380.269 378.58C380.033 378.419 379.826 378.198 379.66 377.932C379.495 377.665 379.375 377.358 379.308 377.031C379.24 376.703 379.228 376.362 379.27 376.03C379.313 375.697 379.41 375.379 379.555 375.098L408.065 318.819C408.214 318.529 408.312 318.203 408.354 317.862C408.397 317.521 408.382 317.172 408.311 316.839C408.24 316.505 408.114 316.195 407.942 315.928C407.77 315.66 407.556 315.442 407.313 315.287L402.761 312.394C402.461 312.206 402.128 312.121 401.793 312.147C401.458 312.173 401.134 312.308 400.851 312.541L322.342 377.01C321.979 377.31 321.549 377.446 321.119 377.397C320.688 377.348 320.284 377.117 319.969 376.741C316.137 372.147 312.497 367.455 309.051 362.665C258.589 292.318 208.378 221.701 158.417 150.815C158.07 150.325 146.091 134.777 151.319 136.077C151.704 136.175 152.129 136.371 152.592 136.666C235.435 189.52 318.124 242.766 400.658 296.405C402.394 297.533 404.619 298.694 407.332 299.887Z" fill="#FAB397"/>
<path d="M644.257 570.744C642.827 572.59 641.475 573.782 640.2 574.321C637.419 575.285 635.945 574.231 635.777 571.16L634 562.584L637.786 560.036C640.645 559.088 643.272 556.728 645.667 552.954C666.012 520.887 696.924 471.691 738.401 405.367C745.277 394.373 750.872 385.086 755.186 377.506C755.46 377.026 755.587 376.436 755.544 375.846C755.502 375.256 755.292 374.705 754.954 374.296L675.277 277.677C675.045 277.392 674.872 277.037 674.776 276.645C674.68 276.254 674.662 275.837 674.726 275.435C674.789 275.032 674.931 274.657 675.139 274.342C675.347 274.027 675.614 273.784 675.915 273.634C743.3 240.244 810.19 206.445 876.584 172.237C878.206 171.379 879.655 172.997 878.689 174.712C828.984 261.439 792.04 326.636 767.857 370.302C761.29 382.162 754.529 393.017 747.614 404.264C713.194 460.362 678.741 515.855 644.257 570.744Z" fill="#B9D4DB"/>
<path d="M577.936 310.667L629.535 322.409C630.004 322.509 630.486 322.392 630.89 322.079C631.293 321.766 631.593 321.278 631.731 320.707L632.276 318.438C634.491 321.76 636.733 322.582 639 320.904C638.443 395.324 638.274 469.744 638.495 544.164C638.514 548.654 637.076 554.378 639 560.101L635.191 562.667L632.198 556.401L632.276 552.799L573 321.521C573.92 320.995 574.684 320.271 575.293 319.35C575.459 319.109 575.586 318.825 575.666 318.516C575.746 318.207 575.778 317.879 575.76 317.549C575.54 314.26 576.265 311.966 577.936 310.667Z" fill="#FADC9E"/>
<path d="M983.466 485.921C986.951 487.862 986.841 489.395 983.137 490.521L799.381 546.601C799.096 546.686 798.799 546.688 798.513 546.607C798.227 546.526 797.959 546.364 797.73 546.133C797.5 545.903 797.315 545.609 797.189 545.274C797.063 544.94 796.998 544.574 797 544.203L797.716 389.102C797.717 388.701 797.796 388.306 797.947 387.953C798.097 387.601 798.315 387.3 798.581 387.077C798.847 386.855 799.152 386.718 799.471 386.679C799.789 386.639 800.111 386.698 800.407 386.851C861.73 418.969 922.75 451.992 983.466 485.921Z" fill="#AAABB0"/>
<path d="M272.459 440.87L274 450.677C267.619 478.47 261.963 506.37 257.031 534.375C256.506 536.526 255.599 538.401 254.309 540C185.601 503.122 117.127 465.564 48.8869 427.328C48.5322 427.135 48.2413 426.789 48.065 426.351C46.5411 422.594 72.2081 424.398 83.9372 424.674C146.116 426.231 195.629 427.356 232.477 428.049C236.564 428.134 240.177 428.283 243.316 428.495C252.802 429.132 263.538 436.646 272.459 440.87Z" fill="#FAB397"/>
<path d="M272 441.333C299.338 456.675 326.65 472.033 353.937 487.407C371.967 497.556 389.514 500.346 409.979 504.741C513.186 527.012 584.417 542.165 623.672 550.198L624 555.827C608.308 557.605 597.351 559.226 591.129 560.691C552.118 569.893 489.912 585.613 404.51 607.852C404.212 607.927 403.932 608.096 403.693 608.346C403.454 608.595 403.264 608.917 403.138 609.284L401.282 614.667C398.448 614.42 396.11 613.325 394.268 611.383L369.996 508.494C369.912 508.139 369.768 507.814 369.574 507.54C369.38 507.267 369.141 507.053 368.875 506.914C336.796 490.008 305.084 471.951 273.739 452.741L272 441.333Z" fill="#AAABB0"/>
<path d="M254.991 549.333C266.842 555.034 278.054 561.527 288.624 568.812C288.856 568.97 289.06 569.188 289.223 569.453C289.385 569.717 289.503 570.023 289.568 570.35C289.633 570.677 289.644 571.018 289.6 571.353C289.557 571.687 289.46 572.006 289.316 572.291L278.284 594.195C278.097 594.567 277.992 594.995 277.978 595.435C277.965 595.874 278.044 596.309 278.207 596.694L342.514 746.667C342.648 746.975 342.831 747.244 343.053 747.455C343.275 747.666 343.531 747.815 343.802 747.892L510.778 793.097C513.481 793.832 514.18 792.648 512.873 789.544L495.133 747.402L504.666 749.999L526.537 804.416C527.511 806.866 526.947 807.806 524.846 807.234L328.888 754.336C328.444 754.209 327.978 754.296 327.581 754.581C276.843 789.47 225.348 824.63 173.098 860.059C160.798 868.406 148.421 876.548 135.967 884.487C133.327 886.185 132.635 885.328 133.891 881.914C134.89 879.17 136.018 876.516 137.274 873.951C183.643 778.755 230.23 681.714 277.035 582.826C278.201 580.344 277.65 579.102 275.382 579.102C273.422 579.102 270.622 579.437 266.983 580.107C244.945 584.141 223.401 588.135 202.349 592.088C202.043 592.141 201.751 592.291 201.499 592.526C201.247 592.762 201.044 593.074 200.908 593.436L156.877 708.077C156.757 708.396 156.584 708.679 156.37 708.905C156.156 709.13 155.906 709.294 155.637 709.385C155.369 709.476 155.088 709.492 154.814 709.431C154.54 709.37 154.28 709.234 154.052 709.033L2.10551 574.913C-1.00799 572.168 -0.668451 570.682 3.12412 570.453C8.23641 570.143 13.8612 570.11 19.9985 570.355C94.2612 573.246 135.563 576.456 193.355 578.245C204.886 578.604 216.053 578.008 226.854 576.456C240.051 574.578 253.114 572.405 266.042 569.939C269.001 569.383 269.174 568.167 266.56 566.288L251.935 555.826C253.383 553.98 254.401 551.816 254.991 549.333Z" fill="#FADC9E"/>
<path d="M694.001 558.374C694.052 555.971 694.627 553.756 695.727 551.729C695.952 551.313 696.271 550.995 696.642 550.819C697.013 550.644 697.417 550.619 697.8 550.748C805.225 586.547 913.456 619.085 1021.09 653.951C1025.2 655.3 1024.95 658.242 1020.38 659.272C948.37 675.619 876.151 690.518 803.729 703.971C803.47 704.023 803.206 704.005 802.954 703.919C802.701 703.832 802.464 703.68 802.259 703.47C802.053 703.261 801.884 702.999 801.76 702.701C801.637 702.404 801.562 702.076 801.541 701.74L795.191 594.271C795.158 593.757 794.999 593.27 794.737 592.879C794.476 592.487 794.124 592.21 793.732 592.089L695.459 560.802C695.034 560.667 694.658 560.354 694.392 559.912C694.127 559.47 693.989 558.928 694.001 558.374Z" fill="#FAB397"/>
<path d="M637.533 570.667C637.702 573.742 639.191 574.797 642 573.832L640.947 578.028C638.58 582.477 637.117 586.975 636.557 591.523C620.561 722.914 605.15 854.428 588.745 985.746C588.69 986.171 588.546 986.572 588.327 986.908C588.108 987.244 587.822 987.503 587.496 987.66L511.807 1023.53C509.375 1024.69 508.523 1023.7 509.252 1020.54C509.395 1019.9 509.518 1019.21 509.622 1018.45C509.804 1016.96 510.025 1015.77 510.286 1014.87C543.929 898.258 577.58 781.637 611.237 665.009C618.545 639.687 625.438 614.186 631.915 588.505C632.149 587.572 632.845 585.577 634.002 582.518C634.769 580.473 635.237 578.347 635.406 576.138L634.685 573.832L637.533 570.667Z" fill="#FAB397"/>
<path d="M646.044 569.333C751.173 705.417 854.85 841.255 959.444 977.29C959.7 977.622 959.878 978.042 959.956 978.501C960.034 978.959 960.008 979.436 959.883 979.877L959.539 981.059C959.445 981.378 959.301 981.669 959.116 981.914C958.932 982.158 958.711 982.352 958.467 982.481C958.223 982.61 957.962 982.673 957.699 982.666C957.437 982.659 957.178 982.581 956.94 982.439L732.352 848.301C731.939 848.054 731.608 847.624 731.418 847.086C731.229 846.548 731.194 845.94 731.321 845.369L757.211 732.146C757.31 731.728 757.319 731.283 757.238 730.858C757.157 730.434 756.99 730.045 756.752 729.732L659.114 601.162C655.598 596.53 654.534 597.327 655.923 603.551C681.004 716.577 706.264 828.749 731.703 940.066C732.9 945.322 731.168 947.555 726.506 946.767C726.137 946.708 725.791 946.511 725.509 946.2C725.227 945.889 725.022 945.478 724.92 945.018L641 577.143L642.032 572.93C643.293 572.388 644.63 571.189 646.044 569.333Z" fill="#B9D4DB"/>
<path d="M633.291 574.667L634 576.947C623.891 587.831 615.47 597.907 608.735 607.174C574.256 654.544 539.79 701.931 505.336 749.333L495.828 746.762L448.039 661.563C447.806 661.147 447.474 660.836 447.091 660.674C446.709 660.513 446.296 660.51 445.912 660.666L376.634 688.394C374.372 689.3 373.567 688.305 374.219 685.41L376.5 675.246L381.695 675.755C464.065 643.126 544.499 610.862 625.585 576.85C626.709 576.381 629.278 575.653 633.291 574.667Z" fill="#B9D4DB"/>
<path d="M394.13 610.667C395.934 612.588 398.224 613.671 401 613.915L381.129 676L376 675.487C380.681 653.457 386.724 631.85 394.13 610.667Z" fill="#AAABB0"/>
<path d="M502.418 934.208L304.686 957.331C304.552 957.344 304.418 957.303 304.303 957.213C304.189 957.124 304.1 956.99 304.048 956.831C303.997 956.673 303.986 956.497 304.018 956.331C304.049 956.164 304.121 956.014 304.223 955.903L446.92 805.517C446.992 805.441 447.077 805.386 447.168 805.357C447.26 805.328 447.355 805.326 447.447 805.349C447.539 805.373 447.626 805.422 447.701 805.494C447.777 805.565 447.839 805.657 447.883 805.763L502.919 933.001C502.971 933.12 502.999 933.253 503 933.389C503.001 933.525 502.976 933.659 502.926 933.779C502.876 933.899 502.803 934.001 502.715 934.076C502.626 934.151 502.524 934.196 502.418 934.208Z" fill="#FADC9E"/>
</g>
<defs>
<clipPath id="clip0_23_2">
<rect width="64" height="64" fill="white"/>
</clipPath>
</defs>
</svg>
